<svg width="26" height="26" viewBox="0 0 26 26" fill="none" xmlns="http://www.w3.org/2000/svg">
<g clip-path="url(#clip0_17643_40401)">
<path d="M5.31702 0L3.71076 4.34942L2.13143 2.02562L0 7.79952L6.15286 7.94379L4.70241 5.80948L9.33845 5.91721L8.21888 4.26958C8.71666 4.01357 9.23392 3.7944 9.76743 3.62131C10.8755 3.27166 12.0427 3.10965 13.2098 3.14905C15.549 3.23276 17.8538 4.1385 19.607 5.70945C21.3749 7.26562 22.5821 9.45772 22.9465 11.7969C23.3158 14.1361 22.852 16.6178 21.6307 18.6615C20.4242 20.7151 18.4691 22.3253 16.2136 23.1379C15.0908 23.5466 13.8949 23.7533 12.6933 23.7583C11.4967 23.7533 10.2845 23.5561 9.15186 23.1523C6.88162 22.3545 4.91244 20.7301 3.66651 18.6519C2.73577 17.1056 2.22299 15.3173 2.17375 13.5099L0.179863 13.6629C0.189712 14.3277 0.258733 14.9979 0.381848 15.6529C0.642852 17.0761 1.14962 18.4493 1.87846 19.7051C3.33122 22.2117 5.67028 24.2012 8.40836 25.2058C9.77247 25.7131 11.2203 25.9747 12.6779 25.9993C14.1356 26.0141 15.5983 25.7777 16.9822 25.3049C19.7448 24.3446 22.1635 22.4139 23.6852 19.8975C25.2266 17.3909 25.8461 14.3528 25.4473 11.4276C25.0385 8.50235 23.5913 5.73419 21.3999 3.7348C19.2281 1.7108 16.3131 0.499038 13.3435 0.341451C11.8563 0.257733 10.3493 0.440212 8.91621 0.863727C8.10317 1.11239 7.31995 1.44558 6.56933 1.84191L5.31702 0ZM8.87292 9.02489C8.79462 9.50652 8.40395 9.76687 7.79182 9.83187V11.3554H8.61227H8.61323V18.3739H10.2666V9.02489H8.87292ZM12.3115 9.02489L11.9075 13.6734L13.4705 14.3371C13.796 13.8422 14.0297 13.66 14.7719 13.66C15.449 13.66 16.0876 14.1545 16.0876 15.2355C16.0876 16.3164 15.3582 16.7984 14.4727 16.7984C13.9389 16.7984 13.3653 16.6024 12.6231 16.0819L11.7902 17.6843C12.6234 18.257 13.4578 18.4912 14.5131 18.4922C16.5701 18.4922 17.7026 17.2814 17.7026 15.0806C17.7026 13.1403 16.6611 11.9806 14.8248 11.9806C14.4076 11.9806 14.004 12.0325 13.6263 12.2797L13.7571 10.6783H17.1687V9.02489H12.3115Z" fill="white"/>
</g>
<defs>
<clipPath id="clip0_17643_40401">
<rect width="26" height="26" fill="white"/>
</clipPath>
</defs>
</svg>
