<svg width="23" height="22" viewBox="0 0 23 22" fill="none" xmlns="http://www.w3.org/2000/svg">
<path d="M11.5 19.9375C16.3893 19.9375 20.4375 15.8806 20.4375 11C20.4375 6.11066 16.3806 2.0625 11.4912 2.0625C6.61066 2.0625 2.5625 6.11066 2.5625 11C2.5625 15.8806 6.61942 19.9375 11.5 19.9375ZM8.55588 14.6801C8.15282 14.6801 7.83738 14.3559 7.83738 13.9529C7.83738 13.7601 7.90748 13.5761 8.04767 13.4447L10.4748 11.0088L8.04767 8.58162C7.90748 8.44142 7.83738 8.26618 7.83738 8.07341C7.83738 7.66158 8.15282 7.3549 8.55588 7.3549C8.75741 7.3549 8.91513 7.425 9.05533 7.55643L11.5 9.99234L13.9622 7.54767C14.1112 7.39871 14.2689 7.33738 14.4616 7.33738C14.8647 7.33738 15.1889 7.65282 15.1889 8.05588C15.1889 8.25741 15.1276 8.41513 14.9699 8.57286L12.5339 11.0088L14.9611 13.4359C15.1101 13.5673 15.1801 13.7513 15.1801 13.9529C15.1801 14.3559 14.8559 14.6801 14.4441 14.6801C14.2426 14.6801 14.0586 14.61 13.9271 14.4699L11.5 12.0339L9.08162 14.4699C8.94142 14.61 8.75741 14.6801 8.55588 14.6801Z" fill="#8E8E93"/>
</svg>
