<svg width="26" height="26" viewBox="0 0 26 26" fill="none" xmlns="http://www.w3.org/2000/svg">
<g clip-path="url(#clip0_17643_40404)">
<path d="M20.2481 0L18.9958 1.84191C18.2452 1.44558 17.462 1.11239 16.649 0.863727C15.2159 0.440212 13.7089 0.257733 12.2216 0.341451C9.2521 0.499038 6.33705 1.7108 4.16531 3.7348C1.97386 5.73419 0.52665 8.50235 0.117908 11.4276C-0.280984 14.3528 0.338592 17.3909 1.87999 19.8975C3.40169 22.4139 5.82032 24.3446 8.58301 25.3049C9.96682 25.7777 11.4295 26.0141 12.8872 25.9993C14.3449 25.9747 15.7927 25.7131 17.1568 25.2058C19.8949 24.2012 22.2339 22.2117 23.6867 19.7051C24.4155 18.4493 24.9223 17.0761 25.1833 15.6529C25.3064 14.9979 25.3755 14.3277 25.3853 13.6629L23.3914 13.5099C23.3422 15.3173 22.8294 17.1056 21.8987 18.6519C20.6527 20.7301 18.6835 22.3545 16.4133 23.1523C15.2807 23.5561 14.0685 23.7533 12.8718 23.7583C11.6702 23.7533 10.4743 23.5466 9.35152 23.1379C7.09606 22.3253 5.14099 20.7151 3.93447 18.6615C2.71317 16.6178 2.24933 14.1361 2.61868 11.7969C2.9831 9.45772 4.19024 7.26562 5.95817 5.70945C7.71132 4.1385 10.0161 3.23276 12.3553 3.14905C13.5225 3.10965 14.6897 3.27166 15.7977 3.62131C16.3312 3.7944 16.8485 4.01357 17.3463 4.26958L16.2267 5.91721L20.8628 5.80948L19.4123 7.94379L25.5652 7.79952L23.4337 2.02562L21.8544 4.34942L20.2481 0ZM8.9437 9.02489C8.8654 9.50652 8.47473 9.76687 7.8626 9.83187V11.3554H8.68304H8.68401V18.3739H10.3374V9.02489H8.9437ZM12.3823 9.02489L11.9783 13.6734L13.5413 14.3371C13.8668 13.8422 14.1005 13.66 14.8426 13.66C15.5198 13.66 16.1584 14.1545 16.1584 15.2355C16.1584 16.3164 15.4289 16.7984 14.5435 16.7984C14.0097 16.7984 13.436 16.6024 12.6939 16.0819L11.8609 17.6843C12.6942 18.257 13.5286 18.4912 14.5839 18.4922C16.6409 18.4922 17.7733 17.2814 17.7733 15.0806C17.7733 13.1403 16.7319 11.9806 14.8955 11.9806C14.4784 11.9806 14.0748 12.0325 13.6971 12.2797L13.8279 10.6783H17.2395V9.02489H12.3823Z" fill="white"/>
</g>
<defs>
<clipPath id="clip0_17643_40404">
<rect width="26" height="26" fill="white"/>
</clipPath>
</defs>
</svg>
