<svg width="26" height="26" viewBox="0 0 26 26" fill="none" xmlns="http://www.w3.org/2000/svg">
<path d="M8.2 0H5.6C4.91044 0 4.24912 0.273928 3.76152 0.761522C3.27393 1.24912 3 1.91044 3 2.6V23.4C3 24.0896 3.27393 24.7509 3.76152 25.2385C4.24912 25.7261 4.91044 26 5.6 26H8.2C8.88956 26 9.55088 25.7261 10.0385 25.2385C10.5261 24.7509 10.8 24.0896 10.8 23.4V2.6C10.8 1.91044 10.5261 1.24912 10.0385 0.761522C9.55088 0.273928 8.88956 0 8.2 0V0ZM21.2 0H18.6C17.9104 0 17.2491 0.273928 16.7615 0.761522C16.2739 1.24912 16 1.91044 16 2.6V23.4C16 24.0896 16.2739 24.7509 16.7615 25.2385C17.2491 25.7261 17.9104 26 18.6 26H21.2C21.8896 26 22.5509 25.7261 23.0385 25.2385C23.5261 24.7509 23.8 24.0896 23.8 23.4V2.6C23.8 1.91044 23.5261 1.24912 23.0385 0.761522C22.5509 0.273928 21.8896 0 21.2 0V0Z" fill="white"/>
</svg>
